<svg id="Layer_1" data-name="Layer 1" xmlns="http://www.w3.org/2000/svg" xmlns:xlink="http://www.w3.org/1999/xlink" viewBox="0 0 299.67 49.95"><defs><style>.cls-1{fill:#1a223d;}.cls-2{fill:#5d503c;}.cls-3{fill:url(#linear-gradient);}.cls-4{fill:url(#linear-gradient-2);}</style><linearGradient id="linear-gradient" x1="1.13" y1="38.96" x2="59.91" y2="38.96" gradientUnits="userSpaceOnUse"><stop offset="0" stop-color="#e84e0f"/><stop offset="1" stop-color="#f39336"/></linearGradient><linearGradient id="linear-gradient-2" x1="15.56" y1="28.43" x2="59.91" y2="28.43" xlink:href="#linear-gradient"/></defs><title>310x50</title><path class="cls-1" d="M74.63,10.85h3.11V36.33H94.58v2.79H74.63V10.85Z" transform="translate(-1.13 -0.01)"/><path class="cls-1" d="M99,10.85h3.11V39.12H99V10.85Z" transform="translate(-1.13 -0.01)"/><path class="cls-1" d="M105.93,10.85h23.54v2.79H119.25V39.12h-3.11V13.64H105.93V10.85Z" transform="translate(-1.13 -0.01)"/><path class="cls-1" d="M133.26,10.85h3.11V23.49H152.8V10.85h3.11V39.12H152.8V26.28H136.37V39.12h-3.11V10.85Z" transform="translate(-1.13 -0.01)"/><path class="cls-1" d="M175.38,39.56A14.44,14.44,0,0,1,160.8,25a14.56,14.56,0,1,1,29.11,0A14.43,14.43,0,0,1,175.38,39.56Zm0-26.28A11.38,11.38,0,0,0,163.95,25a11.41,11.41,0,1,0,22.81,0A11.37,11.37,0,0,0,175.38,13.27Z" transform="translate(-1.13 -0.01)"/><path class="cls-1" d="M194.19,32.13c2.91,3.11,6.22,4.68,9.89,4.68,4.44,0,7.59-2.3,7.59-5.57,0-2.91-1.86-4.32-6.5-5.09l-4.08-.65c-5.45-.89-8-3.15-8-7.15,0-4.68,4-7.87,9.93-7.87a18.62,18.62,0,0,1,11.14,3.75l-1.78,2.42A15.63,15.63,0,0,0,203,13.15c-4,0-6.78,2-6.78,5,0,2.62,1.62,3.92,5.73,4.56l4,0.65c6.18,1,8.84,3.35,8.84,7.75,0,5-4.44,8.44-10.82,8.44a16,16,0,0,1-11.83-5.25Z" transform="translate(-1.13 -0.01)"/><path class="cls-1" d="M218.46,10.85h14.17c5.57,0,9.49,3.67,9.49,8.88,0,5-4,8.72-9.49,8.72h-8.32V39.12h-5.85V10.85Zm5.85,5v7.71H232c2.54,0,4.2-1.53,4.2-3.84s-1.66-3.88-4.2-3.88h-7.67Z" transform="translate(-1.13 -0.01)"/><path class="cls-1" d="M259.81,39.56a14.58,14.58,0,1,1,15-14.58A14.63,14.63,0,0,1,259.81,39.56Zm0-23.78A8.89,8.89,0,0,0,250.89,25a8.95,8.95,0,1,0,17.89,0A8.9,8.9,0,0,0,259.81,15.78Z" transform="translate(-1.13 -0.01)"/><path class="cls-1" d="M279.72,30.43c3.31,2.87,6.18,4.12,9.57,4.12s5.77-1.37,5.77-3.55c0-1.94-1.29-2.91-4.64-3.47l-5.61-1c-4.85-.81-7.39-3.43-7.39-7.55,0-5.29,4.28-8.56,11.14-8.56a19.64,19.64,0,0,1,11.67,4l-3.15,4.36a14.38,14.38,0,0,0-8.92-3.39c-3.15,0-5.17,1.25-5.17,3.19,0,1.74,1.13,2.62,4,3.07l5.33,0.89c5.65,0.93,8.44,3.59,8.44,8,0,5.53-4.64,9-11.91,9a18.74,18.74,0,0,1-12.52-4.89Z" transform="translate(-1.13 -0.01)"/><path class="cls-2" d="M16.75,27.18V0h0A6.76,6.76,0,0,0,10,6.77V37.31A26.77,26.77,0,0,1,16.75,27.18Z" transform="translate(-1.13 -0.01)"/><path class="cls-3" d="M1.13,50s4.72-7.7,20.47-4.3c5.66,1.21,11.18,3.57,17,3.22a19.91,19.91,0,0,0,13.22-6.23A26.18,26.18,0,0,0,54.76,39a39.83,39.83,0,0,0,2.44-4.24A49.59,49.59,0,0,0,59.91,28a10.88,10.88,0,0,1-3.17,4.31A22.41,22.41,0,0,1,45.65,38a43,43,0,0,1-13.2.07c-3.7-.41-7.37-1.12-11.09-1.26-3.21-.12-6.7-0.05-9.85,1.3C7.36,39.89,5.13,43,2.56,47.52,1.91,48.66,1.88,48.72,1.13,50Z" transform="translate(-1.13 -0.01)"/><path class="cls-4" d="M15.56,36.44s3.35-5.36,15.56-3.27c4.38,0.75,8.7,2.29,13.19,2a15.58,15.58,0,0,0,9.93-4.49,17.72,17.72,0,0,0,2.1-2.52,25.77,25.77,0,0,0,1.73-2.95,31.1,31.1,0,0,0,1.85-4.75,7.28,7.28,0,0,1-2.28,3,17.36,17.36,0,0,1-8.32,4.13,36.78,36.78,0,0,1-10.13.25c-2.85-.23-5.69-0.66-8.55-0.7a19.16,19.16,0,0,0-7.52,1c-3.12,1.27-4.72,3.44-6.54,6.59C16.12,35.54,16.1,35.57,15.56,36.44Z" transform="translate(-1.13 -0.01)"/><path class="cls-2" d="M37.43,17.26H28.28a6.55,6.55,0,0,0-6.55,6.55V24a16.7,16.7,0,0,1,6.64-1.34H38.69c7.39,0,12.25-4.86,12.25-11.16C50.93,4.82,46.07,0,38.69,0h-17a5.6,5.6,0,0,0,5.6,5.6H37.5c4.54,0,6.78,2.5,6.78,5.79S42,17.26,37.43,17.26Z" transform="translate(-1.13 -0.01)"/></svg>